<svg width="300" height="200" viewBox="0 0 300 200" fill="none" xmlns="http://www.w3.org/2000/svg">
  <!-- Background -->
  <rect width="300" height="200" fill="#f8fafc"/>
  
  <!-- Skin area -->
  <rect x="20" y="20" width="260" height="160" fill="#fef3c7" stroke="#f59e0b" stroke-width="2" rx="8"/>
  
  <!-- Lesion simulation -->
  <circle cx="150" cy="100" r="25" fill="#7c2d12" opacity="0.7"/>
  <circle cx="150" cy="100" r="15" fill="#991b1b" opacity="0.9"/>
  
  <!-- Texture lines -->
  <path d="M40 60 Q80 50 120 60 T200 60 T280 60" stroke="#f59e0b" stroke-width="1" fill="none" opacity="0.3"/>
  <path d="M40 80 Q80 70 120 80 T200 80 T280 80" stroke="#f59e0b" stroke-width="1" fill="none" opacity="0.3"/>
  <path d="M40 100 Q80 90 120 100 T200 100 T280 100" stroke="#f59e0b" stroke-width="1" fill="none" opacity="0.3"/>
  <path d="M40 120 Q80 110 120 120 T200 120 T280 120" stroke="#f59e0b" stroke-width="1" fill="none" opacity="0.3"/>
  <path d="M40 140 Q80 130 120 140 T200 140 T280 140" stroke="#f59e0b" stroke-width="1" fill="none" opacity="0.3"/>
  
  <!-- Text -->
  <text x="150" y="30" text-anchor="middle" fill="#64748b" font-family="Arial, sans-serif" font-size="14" font-weight="500">
    Skin Close-up Image
  </text>
  <text x="150" y="190" text-anchor="middle" fill="#94a3b8" font-family="Arial, sans-serif" font-size="10">
    Click to upload skin image
  </text>
</svg>
