<svg width="24" height="24" viewBox="0 0 24 24" fill="none" xmlns="http://www.w3.org/2000/svg">
  <!-- Flower petals -->
  <path d="M12 2C12 2 8 6 8 12C8 18 12 22 12 22C12 22 16 18 16 12C16 6 12 2Z" fill="#3b82f6"/>
  <path d="M12 2C12 2 16 6 16 12C16 18 12 22 12 22C12 22 8 18 8 12C8 6 12 2Z" fill="#60a5fa"/>
  <path d="M2 12C2 12 6 8 12 8C18 8 22 12 22 12C22 12 18 16 12 16C6 16 2 12Z" fill="#3b82f6"/>
  <path d="M22 12C22 12 18 16 12 16C6 16 2 12 2 12C2 12 6 8 12 8C18 8 22 12Z" fill="#60a5fa"/>
  
  <!-- Flower center -->
  <circle cx="12" cy="12" r="3" fill="#fbbf24"/>
  
  <!-- Flower stem -->
  <path d="M12 22L12 20" stroke="#22c55e" stroke-width="2" stroke-linecap="round"/>
  <path d="M10 20L14 20" stroke="#22c55e" stroke-width="1" stroke-linecap="round"/>
</svg>
